<svg viewBox="-100 -100 200 200" xmlns="http://www.w3.org/2000/svg" width="500" height="500" id="face-svg"><defs><clipPath id="leftEyeClipPath"><polyline points="30.302750468149807,-2.257967334257418,30.139786343896017,-2.3236272769711706,29.942234523585455,-2.3860228312804446,29.71052190501535,-2.445277392868788,29.44511757250604,-2.5015107068918074,29.146531121736736,-2.554838927290735,28.815310984581448,-2.605374676105998,28.452042753944784,-2.6532271027907868,28.057347508597793,-2.698501943524623,27.631880138013827,-2.741301580526929,27.176327667204387,-2.7817251013705953,26.691407581554923,-2.8198683582955484,26.177866151660755,-2.8558240275223215,25.63647675816284,-2.88968166856562,25.068038216583663,-2.921527783547894,24.473373102163055,-2.951445876512902,23.88958715232081,-2.982850124967506,23.263781035820116,-3.012403298463902,22.596855684074455,-3.0401521941334093,21.889927895525666,-3.066141740528071,21.14431073272452,-3.090415009946243,20.361494620674048,-3.113013236362013,19.54312913532724,-3.133975838773091,18.691005471130694,-3.153340449781821,17.807039576505865,-3.171142949223961,16.893255946159616,-3.1874175026598706,15.951772059115557,-3.2021966045427672,14.984783451357954,-3.215511125878682,13.994549411979758,-3.227390366192769,12.983379291726378,-3.237862109616622,11.953619412826875,-3.2469526849112254,10.907640569004169,-3.2546870292402095,9.847826104555915,-3.2610887555080392,8.776560561397687,-3.2661802230777903,7.69621888296005,-3.2699826116831594,6.609156163831202,-3.2725159983493524,5.517697934036812,-3.2737994371374994,4.424130966848663,-3.2738510415272444,3.3306945990137375,-3.272688069252149,2.2395725522953915,-3.27032700940257,1.1528852452182348,-3.26678367161064,0.07268258390835725,-3.2620732771320187,-0.999062779079479,-3.256210551639037,-2.0604617290560485,-3.249209819539905,-3.1097145277216223,-3.2410850996386134,-4.145116217028073,-3.2318502019501802,-5.165061599487469,-3.2215188254858935,-6.1680498060355635,-3.2101046568231877,-7.152688462558506,-3.1976214692748113,-8.117697466191157,-3.1840832224719215,-9.061912382495402,-3.169504162175763,-9.984287474626798,-3.1538989201325656,-10.883898375597932,-3.1372826137863203,-11.75994441474687,-3.11967094566407,-12.61175060951907,-3.101080302248367,-13.438769333671086,-3.0815278521515412,-14.240581673004497,-3.061031643406429,-15.01689847973838,-3.039610699688205,-15.767561136628684,-3.017285115281965,-16.49254204194297,-2.9940761486107133,-17.191944826398736,-2.9700063141383843,-17.86600431317384,-2.945099472462566,-18.515086232097264,-2.9193809184115556,-19.139686699128763,-2.8928774669604027,-19.740431472235457,-2.865617536780582,-20.318074994774193,-2.837631231237946,-20.873512589420688,-2.8088444348442323,-21.4071306593038,-2.7791639568524538,-21.919039963784552,-2.7485930578781894,-22.409381881027628,-2.71713563089439,-22.878326920273356,-2.6847962260554876,-23.326073234109764,-2.651580075521514,-23.752845130744618,-2.61749311828221,-24.158891586277495,-2.5825420249811413,-24.544484756971745,-2.546734222739812,-24.909918491526632,-2.5100779199817786,-25.25550684334927,-2.4725821312567633,-25.581582582826744,-2.4342567020647663,-25.888495709598097,-2.3951123336801814,-26.176611964826385,-2.35516060797591,-23.35795208653824,-0.8342298782225193,-23.05481488067616,-0.7257573389252046,-22.736292470009158,-0.6156731931224333,-22.40243843773611,-0.5040530112335615,-22.053335684098016,-0.39098165377915794,-21.68909484181184,-0.2765531029136259,-21.309852691504542,-0.16087029395781638,-20.915770577146912,-0.04404494693165839,-20.507032821487606,0.07380260191322696,-20.08384514148697,0.1925435685609087,-19.646433063751072,0.31204088969851496,-19.195040339965562,0.43214939118362405,-18.729927362329637,0.5527159565116344,-18.25136957898997,0.6735796952831516,-17.759655909474642,0.7945721116713633,-17.25327611252806,0.9160843821348204,-16.73072717377912,1.038436877374298,-16.192333979108543,1.1613357780449438,-15.638441268643477,1.284470246045219,-15.069411807856127,1.407513700947939,-14.485624539211363,1.530125131422961,-13.887472726194716,1.6519504403935827,-13.275362101552146,1.7726238226687996,-12.649709031573057,1.8917691737935223,-12.01093870824798,2.009001528858843,-11.359483381132293,2.123928530014497,-10.695780640747541,2.236151921425597,-10.02027176535159,2.3452690704157697,-9.33340014290921,2.4508745135387957,-8.635609780094432,2.55256152632087,-7.927343910156122,2.6499237154155906,-7.209043711478194,2.7425566319137826,-6.481147148665879,2.830059404550259,-5.744087947989543,2.9120363915496656,-4.998294719017361,2.988098849853467,-4.244190234268392,3.0578666204702283,-3.482190878717402,3.120969828691275,-2.712706280982906,3.1770505979138615,-1.9361391380298298,3.225764775813935,-1.1528852452182348,3.2667836716106406,-0.3633337435295245,3.299795803164628,0.43213240419843824,3.324508652652318,1.2331356961958877,3.340650429558218,2.0393031220139295,3.347971839727388,2.8502649282741404,3.34624785922018,3.6656531080835455,3.335279511711365,4.485099602283554,3.314895648175749,5.308234200701422,3.2849547276023734,6.134682131572832,3.2453465974794615,6.9640613273041225,3.1959942727921447,7.795979354742801,3.136855712275159,8.630029998124856,3.067925590662552,9.465789482867473,2.9892370656765688,10.302812328375733,2.9008635384977786,11.14062681803182,2.8029204064585955,11.978730074535404,2.6955668067022516,12.816582728763661,2.579007349549404,13.65360317031958,2.453493840314407,14.489161367937093,2.3193269883134238,15.322572247911646,2.1768581018064483,16.153088618724723,2.026490767615368,16.979893630030947,1.8686825141601697,17.80209275417628,1.703946456655395,18.61870527841599,1.5328529232089712,19.42865529600082,1.3560310605655048,20.100552861520644,1.2313276592144367,20.764199817901368,1.1035086891860355,21.418728413366967,0.9728827711847292,22.063218540896298,0.8397787173692803,22.696696320063193,0.7045459946335462,23.318132678876463,0.5675551878872347,23.926441935619987,0.429198463336665,24.520480380692764,0.28989003176552286,25.099044858448956,0.1500666118156162,25.66087134903794,0.010187893267640913,26.20463355024438,-0.1292629996780721,26.728941459328265,-0.2677790451207911,27.23233995486497,-0.4048288601786276,27.7133073785853,-0.5398562377077818,28.170254117215556,-0.6722796830217797"></polyline></clipPath><clipPath id="rightEyeClipPath"><polyline points="-31.353872433811013,-2.104102557506904,-31.203071247607607,-2.1578704376767424,-31.01540278730503,-2.2089476340813525,-30.790937591008035,-2.257446530847263,-30.529825656648942,-2.3034756194194435,-30.232293671326445,-2.3471395718786066,-29.898642240644563,-2.3885393142585114,-29.529243118051426,-2.4277720998632653,-29.124536434178196,-2.464931582584627,-28.685027926177924,-2.5001078902193097,-28.21128616706437,-2.5333876977862815,-27.703939795050943,-2.564854300844072,-27.163674742889505,-2.5945876888080703,-26.591231467209283,-2.622664618267832,-25.98740217785569,-2.649158686304378,-25.35302806722923,-2.6741404038075007,-24.768202653243655,-2.6993583856869803,-24.1310901943777,-2.723255621847049,-23.442701178855497,-2.74587134410253,-22.704364616438284,-2.7672409213998215,-21.91769783952202,-2.7873960881572413,-21.084577474732463,-2.806365168131004,-20.207111564741044,-2.824173293825178,-19.287612820024748,-2.8408426214640015,-18.328572980293043,-2.8563925415449054,-17.33263826530525,-2.870839884990619,-16.302585894801414,-2.8841991249187156,-15.241301657269922,-2.8964825740469538,-14.151758507275044,-2.9077005777527947,-13.03699617106763,-2.9178617028054403,-11.900101740202102,-2.9269729217887663,-10.74419123288299,-2.93503979323351,-9.572392102764177,-2.9420666374770734,-8.387826674924055,-2.9480567082693083,-7.193596488739798,-2.9530123601426443,-5.992767527383933,-2.9569352115649217,-4.7883563136664,-2.9598263038932964,-3.583316851945319,-2.961686256147571,-2.3805283958296743,-2.9625154156213283,-1.1827840213970184,-2.9623140043492158,0.00722001435047992,-2.9610822614487535,1.1868941500685244,-2.958820581355026,2.353764651968539,-2.95552964796662,3.505482021307588,-2.95121056472117,4.6398286977473,-2.945864980618877,5.754726078858461,-2.939495212212366,6.848240876048216,-2.9321043615812323,7.918590827186565,-2.92369643030966,8.964149786209049,-2.9142764294854544,9.983452209972363,-2.903850485738868,10.975197062639777,-2.8924259433395716,11.938251157873053,-2.880011462370141,12.871651959107794,-2.8666171129944167,13.77460985818894,-2.852254465839103,14.646509952643243,-2.8369366785069694,15.486913341865534,-2.820678578240013,16.295557962495547,-2.803496740750951,17.07235898326221,-2.7854095652414013,17.817408779572027,-2.7664373456251163,18.530976508118528,-2.746602337974633,19.213507301789544,-2.7259288242097006,19.86562110514903,-2.704443172045849,20.48811117077029,-2.682173891221465,21.081942236697557,-2.6591516860217332,21.648248405312387,-2.635409504117804,22.188330743882066,-2.610982581739563,22.702675519255223,-2.5858000841007804,23.19101755771034,-2.5597703564267182,23.653682559320913,-2.532899652290113,24.091031571828694,-2.505194897467234,24.50345827500021,-2.476663687478567,24.891386264983282,-2.4473142851294964,25.25526633866369,-2.4171556180509906,25.595573778021638,-2.3861972762402806,25.912805634488336,-2.354449509601547,26.20747801330262,-2.321923225486601,26.48012335786741,-2.2886299862355686,26.731287734106377,-2.254582006717572,26.96152811482041,-2.219792151871415,27.171409664044248,-2.1842739342462627,24.182088724845787,-0.7497471353475391,23.730367896307122,-0.6535606333770392,23.26724340652821,-0.5558349989724891,22.792910133065355,-0.4566354222537208,22.307591715647934,-0.3560355124882899,21.811538333844307,-0.25411716507871684,21.30502448472782,-0.15097042854973797,20.78834676054267,-0.046693371535546646,20.261821626369894,0.058608050232963116,19.725783197793273,0.16482012694095038,19.18058101856527,0.271821527702381,18.62657783827301,0.379483433572787,18.06414739000416,0.4876696705620165,17.49367216801287,0.5962368426469942,16.915541205385786,0.705034464784474,16.32764274635946,0.8144049305955847,15.728065510711232,0.9246309235410157,15.117493567623859,1.0354541980129435,14.49659669600092,1.1466001248232622,13.866027955172834,1.2577788375565602,13.226421294214363,1.3686864123329143,12.578389216466897,1.47900607998734,11.922520515859032,1.5884094696727478,11.259378101618841,1.6965578828932117,10.58949692797123,1.8031035969744313,9.913382045413856,1.9076911969781913,9.23150679016506,2.0099589350676736,8.54431112837711,2.1095401163304444,7.852200171708365,2.206064510065985,7.155542880847625,2.2991597855445645,6.454670973584214,2.38845297124433,5.749878054017135,2.473571936573418,5.0414189794967985,2.5541468950839588,4.329509481892684,2.629811928184775,3.614326059780422,2.7002065283596584,2.896006158141692,2.764977160898012,2.174648652170354,2.8237788431447384,1.4503146517782795,2.87627674027619,0.7230286433942692,2.922147776609013,-0.007220014350480031,2.961082261448754,-0.7404752244569671,2.9927855284850344,-1.4768118983195704,3.0169795877401495,-2.216333298820437,3.0334047890779083,-2.9591679631636114,3.041821496279606,-3.7054661888554983,3.0420117706938874,-4.455396066238235,3.0337810634674054,-5.209139040982528,3.016959915363096,-5.966884989946532,2.9914056631728694,-6.728826793807373,2.9570041517316237,-7.495154389871816,2.913671450539358,-8.266048288472751,2.8613555739982597,-9.041672536357968,2.8000382042715803,-9.822167110477867,2.72973641577116,-10.60763972557863,2.6505044002804277,-11.398157039007467,2.5624351917197115,-12.193735236136465,2.465662389560698,-12.994329979811656,2.3603618798968893,-13.799825707233829,2.2467535531768914,-14.610024257677697,2.1251030176073553,-15.424632814455983,1.9957233072324336,-16.243251144534987,1.8589765836965841,-17.065358119208224,1.7152758306975397,-17.890297499234638,1.5650865401363094,-18.71726296784812,1.4089283889710384,-19.545282395044705,1.2473769057815471,-20.208783341373614,1.1342854972888268,-20.86787951722044,1.018304952517052,-21.521759934261915,0.8997196462968389,-22.16954617987617,0.7788329902289588,-22.810290306050092,0.6559678788287591,-23.44297271828671,0.5314671356705749,-24.066500064512663,0.4056939595321545,-24.679703123985476,0.27903237053906915,-25.28133469620106,0.15188765630913492,-25.870067489801034,0.024686818096828933,-26.444492011480158,-0.10212098306229223,-27.003114454893694,-0.22806398020717777,-27.544354589564843,-0.3526473543068618,-28.066543649792074,-0.47535278811604753,-28.567922223556582,-0.5956380200306879"></polyline></clipPath><filter id="fuzzy"><feTurbulence id="turbulence" baseFrequency="0.05" numOctaves="3" type="noise" result="noise"></feTurbulence><feDisplacementMap in="SourceGraphic" in2="noise" scale="2"></feDisplacementMap></filter><linearGradient id="rainbowGradient" x1="0%" y1="0%" x2="100%" y2="0%"><stop offset="0%" style="stop-color: rgb(220, 208, 186);  stop-opacity: 1"></stop><stop offset="50%" style="stop-color: rgb(167, 133, 106);  stop-opacity: 1"></stop><stop offset="100%" style="stop-color: rgb(0, 191, 255);  stop-opacity: 1"></stop></linearGradient></defs><title>That&#39;s an ugly face</title><desc>CREATED BY XUAN TANG, MORE INFO AT TXSTC55.GITHUB.IO</desc><rect x="-100" y="-100" width="100%" height="100%" fill="rgb(152, 251, 152)"></rect><polyline id="faceContour" points="73,0,73,2,73,1,72,4,72,6,72,7,72,11,72,11,72,12,72,14,71,13,71,15,71,18,71,19,70,22,70,22,69,23,70,23,69,26,68,28,68,29,68,30,67,34,67,32,66,36,66,36,65,37,65,38,65,37,63,42,64,42,63,43,62,46,62,47,61,48,60,50,60,49,60,50,58,53,59,51,57,54,57,56,57,55,56,58,54,60,53,61,54,61,53,62,51,64,50,66,51,65,49,67,48,68,48,69,46,70,47,69,46,71,44,73,44,72,41,76,41,76,41,76,40,76,39,77,39,78,37,79,36,80,35,81,35,81,33,83,33,83,31,84,29,85,29,85,28,86,27,86,25,87,24,88,23,88,23,88,23,88,19,90,20,89,18,90,18,90,15,91,15,92,14,92,14,92,12,92,12,92,9,93,9,93,8,93,8,93,5,94,5,94,3,94,1,94,1,94,-1,94,-2,94,-4,94,-4,94,-6,94,-6,94,-7,94,-7,94,-9,94,-11,93,-12,93,-13,93,-13,93,-13,93,-14,93,-16,92,-19,91,-17,92,-20,91,-20,90,-21,90,-23,89,-23,89,-25,88,-26,88,-27,88,-27,87,-29,86,-29,87,-30,86,-31,85,-34,83,-34,83,-35,82,-36,82,-38,80,-38,80,-39,79,-40,79,-41,77,-42,76,-43,75,-43,76,-44,74,-45,73,-46,72,-47,71,-47,71,-48,70,-50,67,-49,69,-50,67,-51,66,-52,65,-54,62,-54,62,-55,61,-56,59,-56,58,-57,57,-58,55,-58,55,-59,54,-60,51,-60,51,-61,49,-61,50,-61,48,-63,46,-63,44,-64,44,-64,42,-64,42,-65,39,-66,36,-67,35,-67,34,-67,33,-68,32,-68,32,-68,30,-68,30,-69,28,-69,25,-69,24,-70,23,-70,21,-71,19,-71,16,-71,15,-71,17,-71,15,-72,13,-72,9,-72,11,-72,8,-72,5,-72,5,-72,5,-73,2,-73,0,-73,-2,-73,-3,-73,-5,-73,-7,-73,-8,-72,-9,-72,-11,-72,-13,-72,-14,-72,-16,-72,-18,-72,-19,-72,-19,-72,-21,-71,-22,-71,-23,-71,-24,-70,-28,-71,-27,-70,-30,-69,-33,-69,-34,-69,-35,-69,-36,-69,-35,-67,-39,-67,-41,-67,-41,-66,-43,-66,-43,-66,-44,-65,-47,-64,-48,-64,-49,-64,-48,-63,-51,-63,-52,-61,-54,-61,-54,-61,-54,-59,-58,-60,-57,-58,-60,-58,-59,-56,-63,-55,-65,-55,-64,-55,-65,-53,-67,-53,-68,-51,-70,-51,-70,-50,-71,-49,-72,-48,-73,-48,-73,-47,-74,-45,-76,-45,-76,-44,-78,-42,-78,-43,-79,-42,-79,-40,-80,-39,-81,-38,-82,-38,-82,-36,-83,-36,-83,-35,-84,-33,-86,-33,-86,-31,-86,-31,-86,-30,-87,-27,-88,-25,-89,-25,-89,-24,-90,-22,-90,-24,-90,-19,-92,-19,-91,-20,-91,-18,-92,-17,-92,-16,-92,-15,-93,-14,-93,-13,-93,-9,-93,-11,-93,-10,-94,-6,-94,-5,-94,-5,-94,-4,-94,-4,-94,-2,-94,0,-94,2,-94,2,-94,3,-94,5,-94,5,-94,8,-94,9,-93,9,-93,12,-93,12,-92,13,-92,16,-91,14,-92,18,-91,18,-91,18,-91,19,-91,22,-89,24,-89,25,-88,25,-88,26,-88,26,-88,27,-87,31,-85,30,-86,33,-84,32,-84,32,-84,33,-84,35,-82,37,-81,37,-81,38,-80,41,-79,41,-78,42,-77,42,-77,45,-75,44,-76,46,-73,46,-73,47,-73,48,-72,48,-72,49,-70,51,-69,51,-68,52,-67,52,-66,53,-65,55,-63,56,-62,56,-61,57,-60,57,-60,59,-56,60,-55,59,-57,60,-55,61,-52,61,-53,62,-50,63,-49,63,-49,64,-46,65,-45,65,-44,65,-44,66,-40,66,-41,68,-37,67,-38,68,-37,68,-36,69,-34,68,-35,70,-30,70,-30,70,-28,70,-29,71,-25,71,-23,71,-22,71,-21,72,-18,72,-19,72,-17,72,-17,72,-15,72,-13,73,-11,73,-11,73,-7,72,-8,73,-6,73,-5,73,-3,73,-2,73,0,73,2" fill="#ffc9a9" stroke="black" stroke-width="1.6666666666666665" stroke-linejoin="round" filter="url(#fuzzy)"></polyline><g transform="translate(30.197613519009288 -25.045965429598937)"><polyline id="rightCountour" points="-31.353872433811013,-2.104102557506904,-31.203071247607607,-2.1578704376767424,-31.01540278730503,-2.2089476340813525,-30.790937591008035,-2.257446530847263,-30.529825656648942,-2.3034756194194435,-30.232293671326445,-2.3471395718786066,-29.898642240644563,-2.3885393142585114,-29.529243118051426,-2.4277720998632653,-29.124536434178196,-2.464931582584627,-28.685027926177924,-2.5001078902193097,-28.21128616706437,-2.5333876977862815,-27.703939795050943,-2.564854300844072,-27.163674742889505,-2.5945876888080703,-26.591231467209283,-2.622664618267832,-25.98740217785569,-2.649158686304378,-25.35302806722923,-2.6741404038075007,-24.768202653243655,-2.6993583856869803,-24.1310901943777,-2.723255621847049,-23.442701178855497,-2.74587134410253,-22.704364616438284,-2.7672409213998215,-21.91769783952202,-2.7873960881572413,-21.084577474732463,-2.806365168131004,-20.207111564741044,-2.824173293825178,-19.287612820024748,-2.8408426214640015,-18.328572980293043,-2.8563925415449054,-17.33263826530525,-2.870839884990619,-16.302585894801414,-2.8841991249187156,-15.241301657269922,-2.8964825740469538,-14.151758507275044,-2.9077005777527947,-13.03699617106763,-2.9178617028054403,-11.900101740202102,-2.9269729217887663,-10.74419123288299,-2.93503979323351,-9.572392102764177,-2.9420666374770734,-8.387826674924055,-2.9480567082693083,-7.193596488739798,-2.9530123601426443,-5.992767527383933,-2.9569352115649217,-4.7883563136664,-2.9598263038932964,-3.583316851945319,-2.961686256147571,-2.3805283958296743,-2.9625154156213283,-1.1827840213970184,-2.9623140043492158,0.00722001435047992,-2.9610822614487535,1.1868941500685244,-2.958820581355026,2.353764651968539,-2.95552964796662,3.505482021307588,-2.95121056472117,4.6398286977473,-2.945864980618877,5.754726078858461,-2.939495212212366,6.848240876048216,-2.9321043615812323,7.918590827186565,-2.92369643030966,8.964149786209049,-2.9142764294854544,9.983452209972363,-2.903850485738868,10.975197062639777,-2.8924259433395716,11.938251157873053,-2.880011462370141,12.871651959107794,-2.8666171129944167,13.77460985818894,-2.852254465839103,14.646509952643243,-2.8369366785069694,15.486913341865534,-2.820678578240013,16.295557962495547,-2.803496740750951,17.07235898326221,-2.7854095652414013,17.817408779572027,-2.7664373456251163,18.530976508118528,-2.746602337974633,19.213507301789544,-2.7259288242097006,19.86562110514903,-2.704443172045849,20.48811117077029,-2.682173891221465,21.081942236697557,-2.6591516860217332,21.648248405312387,-2.635409504117804,22.188330743882066,-2.610982581739563,22.702675519255223,-2.5858000841007804,23.19101755771034,-2.5597703564267182,23.653682559320913,-2.532899652290113,24.091031571828694,-2.505194897467234,24.50345827500021,-2.476663687478567,24.891386264983282,-2.4473142851294964,25.25526633866369,-2.4171556180509906,25.595573778021638,-2.3861972762402806,25.912805634488336,-2.354449509601547,26.20747801330262,-2.321923225486601,26.48012335786741,-2.2886299862355686,26.731287734106377,-2.254582006717572,26.96152811482041,-2.219792151871415,27.171409664044248,-2.1842739342462627,24.182088724845787,-0.7497471353475391,23.730367896307122,-0.6535606333770392,23.26724340652821,-0.5558349989724891,22.792910133065355,-0.4566354222537208,22.307591715647934,-0.3560355124882899,21.811538333844307,-0.25411716507871684,21.30502448472782,-0.15097042854973797,20.78834676054267,-0.046693371535546646,20.261821626369894,0.058608050232963116,19.725783197793273,0.16482012694095038,19.18058101856527,0.271821527702381,18.62657783827301,0.379483433572787,18.06414739000416,0.4876696705620165,17.49367216801287,0.5962368426469942,16.915541205385786,0.705034464784474,16.32764274635946,0.8144049305955847,15.728065510711232,0.9246309235410157,15.117493567623859,1.0354541980129435,14.49659669600092,1.1466001248232622,13.866027955172834,1.2577788375565602,13.226421294214363,1.3686864123329143,12.578389216466897,1.47900607998734,11.922520515859032,1.5884094696727478,11.259378101618841,1.6965578828932117,10.58949692797123,1.8031035969744313,9.913382045413856,1.9076911969781913,9.23150679016506,2.0099589350676736,8.54431112837711,2.1095401163304444,7.852200171708365,2.206064510065985,7.155542880847625,2.2991597855445645,6.454670973584214,2.38845297124433,5.749878054017135,2.473571936573418,5.0414189794967985,2.5541468950839588,4.329509481892684,2.629811928184775,3.614326059780422,2.7002065283596584,2.896006158141692,2.764977160898012,2.174648652170354,2.8237788431447384,1.4503146517782795,2.87627674027619,0.7230286433942692,2.922147776609013,-0.007220014350480031,2.961082261448754,-0.7404752244569671,2.9927855284850344,-1.4768118983195704,3.0169795877401495,-2.216333298820437,3.0334047890779083,-2.9591679631636114,3.041821496279606,-3.7054661888554983,3.0420117706938874,-4.455396066238235,3.0337810634674054,-5.209139040982528,3.016959915363096,-5.966884989946532,2.9914056631728694,-6.728826793807373,2.9570041517316237,-7.495154389871816,2.913671450539358,-8.266048288472751,2.8613555739982597,-9.041672536357968,2.8000382042715803,-9.822167110477867,2.72973641577116,-10.60763972557863,2.6505044002804277,-11.398157039007467,2.5624351917197115,-12.193735236136465,2.465662389560698,-12.994329979811656,2.3603618798968893,-13.799825707233829,2.2467535531768914,-14.610024257677697,2.1251030176073553,-15.424632814455983,1.9957233072324336,-16.243251144534987,1.8589765836965841,-17.065358119208224,1.7152758306975397,-17.890297499234638,1.5650865401363094,-18.71726296784812,1.4089283889710384,-19.545282395044705,1.2473769057815471,-20.208783341373614,1.1342854972888268,-20.86787951722044,1.018304952517052,-21.521759934261915,0.8997196462968389,-22.16954617987617,0.7788329902289588,-22.810290306050092,0.6559678788287591,-23.44297271828671,0.5314671356705749,-24.066500064512663,0.4056939595321545,-24.679703123985476,0.27903237053906915,-25.28133469620106,0.15188765630913492,-25.870067489801034,0.024686818096828933,-26.444492011480158,-0.10212098306229223,-27.003114454893694,-0.22806398020717777,-27.544354589564843,-0.3526473543068618,-28.066543649792074,-0.47535278811604753,-28.567922223556582,-0.5956380200306879" fill="white" stroke="white" stroke-width="0" stroke-linejoin="round" filter="url(#fuzzy)"></polyline></g><g transform="translate(-29.66094367973141 -25.69466311727406)"><polyline id="leftCountour" points="30.302750468149807,-2.257967334257418,30.139786343896017,-2.3236272769711706,29.942234523585455,-2.3860228312804446,29.71052190501535,-2.445277392868788,29.44511757250604,-2.5015107068918074,29.146531121736736,-2.554838927290735,28.815310984581448,-2.605374676105998,28.452042753944784,-2.6532271027907868,28.057347508597793,-2.698501943524623,27.631880138013827,-2.741301580526929,27.176327667204387,-2.7817251013705953,26.691407581554923,-2.8198683582955484,26.177866151660755,-2.8558240275223215,25.63647675816284,-2.88968166856562,25.068038216583663,-2.921527783547894,24.473373102163055,-2.951445876512902,23.88958715232081,-2.982850124967506,23.263781035820116,-3.012403298463902,22.596855684074455,-3.0401521941334093,21.889927895525666,-3.066141740528071,21.14431073272452,-3.090415009946243,20.361494620674048,-3.113013236362013,19.54312913532724,-3.133975838773091,18.691005471130694,-3.153340449781821,17.807039576505865,-3.171142949223961,16.893255946159616,-3.1874175026598706,15.951772059115557,-3.2021966045427672,14.984783451357954,-3.215511125878682,13.994549411979758,-3.227390366192769,12.983379291726378,-3.237862109616622,11.953619412826875,-3.2469526849112254,10.907640569004169,-3.2546870292402095,9.847826104555915,-3.2610887555080392,8.776560561397687,-3.2661802230777903,7.69621888296005,-3.2699826116831594,6.609156163831202,-3.2725159983493524,5.517697934036812,-3.2737994371374994,4.424130966848663,-3.2738510415272444,3.3306945990137375,-3.272688069252149,2.2395725522953915,-3.27032700940257,1.1528852452182348,-3.26678367161064,0.07268258390835725,-3.2620732771320187,-0.999062779079479,-3.256210551639037,-2.0604617290560485,-3.249209819539905,-3.1097145277216223,-3.2410850996386134,-4.145116217028073,-3.2318502019501802,-5.165061599487469,-3.2215188254858935,-6.1680498060355635,-3.2101046568231877,-7.152688462558506,-3.1976214692748113,-8.117697466191157,-3.1840832224719215,-9.061912382495402,-3.169504162175763,-9.984287474626798,-3.1538989201325656,-10.883898375597932,-3.1372826137863203,-11.75994441474687,-3.11967094566407,-12.61175060951907,-3.101080302248367,-13.438769333671086,-3.0815278521515412,-14.240581673004497,-3.061031643406429,-15.01689847973838,-3.039610699688205,-15.767561136628684,-3.017285115281965,-16.49254204194297,-2.9940761486107133,-17.191944826398736,-2.9700063141383843,-17.86600431317384,-2.945099472462566,-18.515086232097264,-2.9193809184115556,-19.139686699128763,-2.8928774669604027,-19.740431472235457,-2.865617536780582,-20.318074994774193,-2.837631231237946,-20.873512589420688,-2.8088444348442323,-21.4071306593038,-2.7791639568524538,-21.919039963784552,-2.7485930578781894,-22.409381881027628,-2.71713563089439,-22.878326920273356,-2.6847962260554876,-23.326073234109764,-2.651580075521514,-23.752845130744618,-2.61749311828221,-24.158891586277495,-2.5825420249811413,-24.544484756971745,-2.546734222739812,-24.909918491526632,-2.5100779199817786,-25.25550684334927,-2.4725821312567633,-25.581582582826744,-2.4342567020647663,-25.888495709598097,-2.3951123336801814,-26.176611964826385,-2.35516060797591,-23.35795208653824,-0.8342298782225193,-23.05481488067616,-0.7257573389252046,-22.736292470009158,-0.6156731931224333,-22.40243843773611,-0.5040530112335615,-22.053335684098016,-0.39098165377915794,-21.68909484181184,-0.2765531029136259,-21.309852691504542,-0.16087029395781638,-20.915770577146912,-0.04404494693165839,-20.507032821487606,0.07380260191322696,-20.08384514148697,0.1925435685609087,-19.646433063751072,0.31204088969851496,-19.195040339965562,0.43214939118362405,-18.729927362329637,0.5527159565116344,-18.25136957898997,0.6735796952831516,-17.759655909474642,0.7945721116713633,-17.25327611252806,0.9160843821348204,-16.73072717377912,1.038436877374298,-16.192333979108543,1.1613357780449438,-15.638441268643477,1.284470246045219,-15.069411807856127,1.407513700947939,-14.485624539211363,1.530125131422961,-13.887472726194716,1.6519504403935827,-13.275362101552146,1.7726238226687996,-12.649709031573057,1.8917691737935223,-12.01093870824798,2.009001528858843,-11.359483381132293,2.123928530014497,-10.695780640747541,2.236151921425597,-10.02027176535159,2.3452690704157697,-9.33340014290921,2.4508745135387957,-8.635609780094432,2.55256152632087,-7.927343910156122,2.6499237154155906,-7.209043711478194,2.7425566319137826,-6.481147148665879,2.830059404550259,-5.744087947989543,2.9120363915496656,-4.998294719017361,2.988098849853467,-4.244190234268392,3.0578666204702283,-3.482190878717402,3.120969828691275,-2.712706280982906,3.1770505979138615,-1.9361391380298298,3.225764775813935,-1.1528852452182348,3.2667836716106406,-0.3633337435295245,3.299795803164628,0.43213240419843824,3.324508652652318,1.2331356961958877,3.340650429558218,2.0393031220139295,3.347971839727388,2.8502649282741404,3.34624785922018,3.6656531080835455,3.335279511711365,4.485099602283554,3.314895648175749,5.308234200701422,3.2849547276023734,6.134682131572832,3.2453465974794615,6.9640613273041225,3.1959942727921447,7.795979354742801,3.136855712275159,8.630029998124856,3.067925590662552,9.465789482867473,2.9892370656765688,10.302812328375733,2.9008635384977786,11.14062681803182,2.8029204064585955,11.978730074535404,2.6955668067022516,12.816582728763661,2.579007349549404,13.65360317031958,2.453493840314407,14.489161367937093,2.3193269883134238,15.322572247911646,2.1768581018064483,16.153088618724723,2.026490767615368,16.979893630030947,1.8686825141601697,17.80209275417628,1.703946456655395,18.61870527841599,1.5328529232089712,19.42865529600082,1.3560310605655048,20.100552861520644,1.2313276592144367,20.764199817901368,1.1035086891860355,21.418728413366967,0.9728827711847292,22.063218540896298,0.8397787173692803,22.696696320063193,0.7045459946335462,23.318132678876463,0.5675551878872347,23.926441935619987,0.429198463336665,24.520480380692764,0.28989003176552286,25.099044858448956,0.1500666118156162,25.66087134903794,0.010187893267640913,26.20463355024438,-0.1292629996780721,26.728941459328265,-0.2677790451207911,27.23233995486497,-0.4048288601786276,27.7133073785853,-0.5398562377077818,28.170254117215556,-0.6722796830217797" fill="white" stroke="white" stroke-width="0" stroke-linejoin="round" filter="url(#fuzzy)"></polyline></g><g transform="translate(30.197613519009288 -25.045965429598937)"><polyline id="rightUpper" points="-30.88102647763306,-1.3907815923298377,-31.08331544341114,-1.478546248925476,-31.25301159000721,-1.562266153198257,-31.38923847088814,-1.6420966485419464,-31.491226805959727,-1.7181884524957258,-31.5583117109055,-1.7906877300614932,-31.589929926525627,-1.8597361670211656,-31.58561704807575,-1.9254710432539848,-31.545004754605863,-1.988025306053814,-31.467818038299182,-2.047527643446446,-31.353872433811013,-2.104102557506904,-31.203071247607607,-2.1578704376767424,-31.01540278730503,-2.2089476340813525,-30.790937591008035,-2.257446530847263,-30.529825656648942,-2.3034756194194435,-30.232293671326445,-2.3471395718786066,-29.898642240644563,-2.3885393142585114,-29.529243118051426,-2.4277720998632653,-29.124536434178196,-2.464931582584627,-28.685027926177924,-2.5001078902193097,-28.21128616706437,-2.5333876977862815,-27.703939795050943,-2.564854300844072,-27.163674742889505,-2.5945876888080703,-26.591231467209283,-2.622664618267832,-25.98740217785569,-2.649158686304378,-25.35302806722923,-2.6741404038075007,-24.768202653243655,-2.6993583856869803,-24.1310901943777,-2.723255621847049,-23.442701178855497,-2.74587134410253,-22.704364616438284,-2.7672409213998215,-21.91769783952202,-2.7873960881572413,-21.084577474732463,-2.806365168131004,-20.207111564741044,-2.824173293825178,-19.287612820024748,-2.8408426214640015,-18.328572980293043,-2.8563925415449054,-17.33263826530525,-2.870839884990619,-16.302585894801414,-2.8841991249187156,-15.241301657269922,-2.8964825740469538,-14.151758507275044,-2.9077005777527947,-13.03699617106763,-2.9178617028054403,-11.900101740202102,-2.9269729217887663,-10.74419123288299,-2.93503979323351,-9.572392102764177,-2.9420666374770734,-8.387826674924055,-2.9480567082693083,-7.193596488739798,-2.9530123601426443,-5.992767527383933,-2.9569352115649217,-4.7883563136664,-2.9598263038932964,-3.583316851945319,-2.961686256147571,-2.3805283958296743,-2.9625154156213283,-1.1827840213970184,-2.9623140043492158,0.00722001435047992,-2.9610822614487535,1.1868941500685244,-2.958820581355026,2.353764651968539,-2.95552964796662,3.505482021307588,-2.95121056472117,4.6398286977473,-2.945864980618877,5.754726078858461,-2.939495212212366,6.848240876048216,-2.9321043615812323,7.918590827186565,-2.92369643030966,8.964149786209049,-2.9142764294854544,9.983452209972363,-2.903850485738868,10.975197062639777,-2.8924259433395716,11.938251157873053,-2.880011462370141,12.871651959107794,-2.8666171129944167,13.77460985818894,-2.852254465839103,14.646509952643243,-2.8369366785069694,15.486913341865534,-2.820678578240013,16.295557962495547,-2.803496740750951,17.07235898326221,-2.7854095652414013,17.817408779572027,-2.7664373456251163,18.530976508118528,-2.746602337974633,19.213507301789544,-2.7259288242097006,19.86562110514903,-2.704443172045849,20.48811117077029,-2.682173891221465,21.081942236697557,-2.6591516860217332,21.648248405312387,-2.635409504117804,22.188330743882066,-2.610982581739563,22.702675519255223,-2.5858000841007804,23.19101755771034,-2.5597703564267182,23.653682559320913,-2.532899652290113,24.091031571828694,-2.505194897467234,24.50345827500021,-2.476663687478567,24.891386264983282,-2.4473142851294964,25.25526633866369,-2.4171556180509906,25.595573778021638,-2.3861972762402806,25.912805634488336,-2.354449509601547,26.20747801330262,-2.321923225486601,26.48012335786741,-2.2886299862355686,26.731287734106377,-2.254582006717572,26.96152811482041,-2.219792151871415,27.171409664044248,-2.1842739342462627,27.361503021402978,-2.1480415115423286,27.53238158646867,-2.111109684151553,27.684618803116862,-2.0734938926982904,27.818785443883165,-2.0352102155799896,27.935446894319803,-1.9962753665078776,28.035160437352197,-1.9567066920476428,28.118472537635512,-1.916522169160118,28.185916125911167,-1.8757404027419624,28.23800788336351,-1.8343806231663464,28.27524552597629,-1.7924626838236337" fill="none" stroke="black" stroke-width="1.6666666666666665" stroke-linejoin="round" filter="url(#fuzzy)"></polyline><polyline id="rightLower" points="-31.981022037340598,-1.5280682844579538,-31.80596761025915,-1.4673962118944945,-31.58705858870154,-1.3974662298930056,-31.327076957953018,-1.3190845815879826,-31.02869294605544,-1.2330291043109969,-30.694467134899924,-1.1400496757351137,-30.326852571319407,-1.040868660019309,-29.928196878181282,-0.9361813539528887,-29.50074436547999,-0.8266564330999047,-29.046638141429632,-0.7129363979435723,-28.567922223556582,-0.5956380200306879,-28.066543649792074,-0.47535278811604753,-27.544354589564843,-0.3526473543068618,-27.003114454893694,-0.22806398020717777,-26.444492011480158,-0.10212098306229223,-25.870067489801034,0.024686818096828933,-25.28133469620106,0.15188765630913492,-24.679703123985476,0.27903237053906915,-24.066500064512663,0.4056939595321545,-23.44297271828671,0.5314671356705749,-22.810290306050092,0.6559678788287591,-22.16954617987617,0.7788329902289588,-21.521759934261915,0.8997196462968389,-20.86787951722044,1.018304952517052,-20.208783341373614,1.1342854972888268,-19.545282395044705,1.2473769057815471,-18.71726296784812,1.4089283889710384,-17.890297499234638,1.5650865401363094,-17.065358119208224,1.7152758306975397,-16.243251144534987,1.8589765836965841,-15.424632814455983,1.9957233072324336,-14.610024257677697,2.1251030176073553,-13.799825707233829,2.2467535531768914,-12.994329979811656,2.3603618798968893,-12.193735236136465,2.465662389560698,-11.398157039007467,2.5624351917197115,-10.60763972557863,2.6505044002804277,-9.822167110477867,2.72973641577116,-9.041672536357968,2.8000382042715803,-8.266048288472751,2.8613555739982597,-7.495154389871816,2.913671450539358,-6.728826793807373,2.9570041517316237,-5.966884989946532,2.9914056631728694,-5.209139040982528,3.016959915363096,-4.455396066238235,3.0337810634674054,-3.7054661888554983,3.0420117706938874,-2.9591679631636114,3.041821496279606,-2.216333298820437,3.0334047890779083,-1.4768118983195704,3.0169795877401495,-0.7404752244569671,2.9927855284850344,-0.007220014350480031,2.961082261448754,0.7230286433942692,2.922147776609013,1.4503146517782795,2.87627674027619,2.174648652170354,2.8237788431447384,2.896006158141692,2.764977160898012,3.614326059780422,2.7002065283596584,4.329509481892684,2.629811928184775,5.0414189794967985,2.5541468950839588,5.749878054017135,2.473571936573418,6.454670973584214,2.38845297124433,7.155542880847625,2.2991597855445645,7.852200171708365,2.206064510065985,8.54431112837711,2.1095401163304444,9.23150679016506,2.0099589350676736,9.913382045413856,1.9076911969781913,10.58949692797123,1.8031035969744313,11.259378101618841,1.6965578828932117,11.922520515859032,1.5884094696727478,12.578389216466897,1.47900607998734,13.226421294214363,1.3686864123329143,13.866027955172834,1.2577788375565602,14.49659669600092,1.1466001248232622,15.117493567623859,1.0354541980129435,15.728065510711232,0.9246309235410157,16.32764274635946,0.8144049305955847,16.915541205385786,0.705034464784474,17.49367216801287,0.5962368426469942,18.06414739000416,0.4876696705620165,18.62657783827301,0.379483433572787,19.18058101856527,0.271821527702381,19.725783197793273,0.16482012694095038,20.261821626369894,0.058608050232963116,20.78834676054267,-0.046693371535546646,21.30502448472782,-0.15097042854973797,21.811538333844307,-0.25411716507871684,22.307591715647934,-0.3560355124882899,22.792910133065355,-0.4566354222537208,23.26724340652821,-0.5558349989724891,23.730367896307122,-0.6535606333770392,24.182088724845787,-0.7497471353475391,24.622241999095046,-0.8443378669246369,25.050697032846948,-0.9372848753222134,25.46735856906877,-1.0285490259401402,25.87216900223717,-1.118100135377031,26.265110600672145,-1.2059171044429995,26.646207728871172,-1.2919880511724182,27.015529069843257,-1.3763104438366658,27.373189847442944,-1.4588912339568885,27.719354048704464,-1.5397469893167524,28.054236646175728,-1.6189040269752013" fill="none" stroke="black" stroke-width="2.2222222222222223" stroke-linejoin="round" filter="url(#fuzzy)"></polyline><!--[--><circle r="3.7773238325396057" cx="-11.966143827470027" cy="-0.03041541035509887" stroke="black" fill="none" stroke-width="1" filter="url(#fuzzy)" clip-path="url(#rightEyeClipPath)"></circle><circle r="3.455366283220757" cx="-12.056017469658142" cy="-0.5989631064730554" stroke="black" fill="none" stroke-width="1" filter="url(#fuzzy)" clip-path="url(#rightEyeClipPath)"></circle><circle r="4.326998584448928" cx="-12.661256355932768" cy="-2.284553316811544" stroke="black" fill="none" stroke-width="1" filter="url(#fuzzy)" clip-path="url(#rightEyeClipPath)"></circle><circle r="4.377289648004728" cx="-10.68782943600328" cy="1.8905083903968247" stroke="black" fill="none" stroke-width="1" filter="url(#fuzzy)" clip-path="url(#rightEyeClipPath)"></circle><circle r="4.790549241716505" cx="-10.081375113724281" cy="-1.5667777962178024" stroke="black" fill="none" stroke-width="1" filter="url(#fuzzy)" clip-path="url(#rightEyeClipPath)"></circle><circle r="4.978869467117553" cx="-13.323086423212409" cy="-2.244957369960212" stroke="black" fill="none" stroke-width="1" filter="url(#fuzzy)" clip-path="url(#rightEyeClipPath)"></circle><circle r="4.681083340822697" cx="-10.430584914019176" cy="-1.554557368034415" stroke="black" fill="none" stroke-width="1" filter="url(#fuzzy)" clip-path="url(#rightEyeClipPath)"></circle><circle r="3.494419618087422" cx="-9.905014398926554" cy="1.6098116969391407" stroke="black" fill="none" stroke-width="1" filter="url(#fuzzy)" clip-path="url(#rightEyeClipPath)"></circle><circle r="3.5150782114953767" cx="-12.391451035463621" cy="0.4366979496937944" stroke="black" fill="none" stroke-width="1" filter="url(#fuzzy)" clip-path="url(#rightEyeClipPath)"></circle><circle r="3.9710693030039894" cx="-8.69301955441194" cy="1.9748863239945678" stroke="black" fill="none" stroke-width="1" filter="url(#fuzzy)" clip-path="url(#rightEyeClipPath)"></circle><!--]--></g><g transform="translate(-29.66094367973141 -25.69466311727406)"><polyline id="leftUpper" points="29.969667954812465,-1.39195062125034,30.165581392526178,-1.4978867359527286,30.325326951094272,-1.599110677393284,30.44881752905464,-1.6957856087812395,30.536024963109785,-1.788070449662202,30.586978352962735,-1.8761199352317197,30.601762386152817,-1.960084675648853,30.58051566289154,-2.0401112153497394,30.523429020898412,-2.1163420923611644,30.43074386023681,-2.188915897614129,30.302750468149807,-2.257967334257418,30.139786343896017,-2.3236272769711706,29.942234523585455,-2.3860228312804446,29.71052190501535,-2.445277392868788,29.44511757250604,-2.5015107068918074,29.146531121736736,-2.554838927290735,28.815310984581448,-2.605374676105998,28.452042753944784,-2.6532271027907868,28.057347508597793,-2.698501943524623,27.631880138013827,-2.741301580526929,27.176327667204387,-2.7817251013705953,26.691407581554923,-2.8198683582955484,26.177866151660755,-2.8558240275223215,25.63647675816284,-2.88968166856562,25.068038216583663,-2.921527783547894,24.473373102163055,-2.951445876512902,23.88958715232081,-2.982850124967506,23.263781035820116,-3.012403298463902,22.596855684074455,-3.0401521941334093,21.889927895525666,-3.066141740528071,21.14431073272452,-3.090415009946243,20.361494620674048,-3.113013236362013,19.54312913532724,-3.133975838773091,18.691005471130694,-3.153340449781821,17.807039576505865,-3.171142949223961,16.893255946159616,-3.1874175026598706,15.951772059115557,-3.2021966045427672,14.984783451357954,-3.215511125878682,13.994549411979758,-3.227390366192769,12.983379291726378,-3.237862109616622,11.953619412826875,-3.2469526849112254,10.907640569004169,-3.2546870292402095,9.847826104555915,-3.2610887555080392,8.776560561397687,-3.2661802230777903,7.69621888296005,-3.2699826116831594,6.609156163831202,-3.2725159983493524,5.517697934036812,-3.2737994371374994,4.424130966848663,-3.2738510415272444,3.3306945990137375,-3.272688069252149,2.2395725522953915,-3.27032700940257,1.1528852452182348,-3.26678367161064,0.07268258390835725,-3.2620732771320187,-0.999062779079479,-3.256210551639037,-2.0604617290560485,-3.249209819539905,-3.1097145277216223,-3.2410850996386134,-4.145116217028073,-3.2318502019501802,-5.165061599487469,-3.2215188254858935,-6.1680498060355635,-3.2101046568231877,-7.152688462558506,-3.1976214692748113,-8.117697466191157,-3.1840832224719215,-9.061912382495402,-3.169504162175763,-9.984287474626798,-3.1538989201325656,-10.883898375597932,-3.1372826137863203,-11.75994441474687,-3.11967094566407,-12.61175060951907,-3.101080302248367,-13.438769333671086,-3.0815278521515412,-14.240581673004497,-3.061031643406429,-15.01689847973838,-3.039610699688205,-15.767561136628684,-3.017285115281965,-16.49254204194297,-2.9940761486107133,-17.191944826398736,-2.9700063141383843,-17.86600431317384,-2.945099472462566,-18.515086232097264,-2.9193809184115556,-19.139686699128763,-2.8928774669604027,-19.740431472235457,-2.865617536780582,-20.318074994774193,-2.837631231237946,-20.873512589420688,-2.8088444348442323,-21.4071306593038,-2.7791639568524538,-21.919039963784552,-2.7485930578781894,-22.409381881027628,-2.71713563089439,-22.878326920273356,-2.6847962260554876,-23.326073234109764,-2.651580075521514,-23.752845130744618,-2.61749311828221,-24.158891586277495,-2.5825420249811413,-24.544484756971745,-2.546734222739812,-24.909918491526632,-2.5100779199817786,-25.25550684334927,-2.4725821312567633,-25.581582582826744,-2.4342567020647663,-25.888495709598097,-2.3951123336801814,-26.176611964826385,-2.35516060797591,-26.44631134347073,-2.3144140122474726,-26.69798660655835,-2.2728859640371235,-26.932041793456573,-2.2305908359579654,-27.14889073414493,-2.187543980518062,-27.34895556148712,-2.1437617549445527,-27.532665223503137,-2.0992615460077637,-27.70045399564124,-2.0540617948453246,-27.852759993050004,-2.0081820217862814,-27.99002368285039,-1.9616428511752095,-28.11268639640776,-1.9144660361963273" fill="none" stroke="black" stroke-width="2.2222222222222223" stroke-linejoin="round" filter="url(#fuzzy)"></polyline><polyline id="leftLower" points="31.01744191891616,-1.7063609522171035,30.904094846592947,-1.6378535419401727,30.746781436006685,-1.559434515969724,30.547848849273166,-1.47196372486062,30.30956211190421,-1.3762710988174762,30.034105530967633,-1.2731571109754158,29.723584113247174,-1.163393240680829,29.38002498340244,-1.0477224367721294,29.005378802128842,-0.9268595808605149,28.60152118431758,-0.8014919506107208,28.170254117215556,-0.6722796830217797,27.7133073785853,-0.5398562377077818,27.23233995486497,-0.4048288601786276,26.728941459328265,-0.2677790451207911,26.20463355024438,-0.1292629996780721,25.66087134903794,0.010187893267640913,25.099044858448956,0.1500666118156162,24.520480380692764,0.28989003176552286,23.926441935619987,0.429198463336665,23.318132678876463,0.5675551878872347,22.696696320063193,0.7045459946335462,22.063218540896298,0.8397787173692803,21.418728413366967,0.9728827711847292,20.764199817901368,1.1035086891860355,20.100552861520644,1.2313276592144367,19.42865529600082,1.3560310605655048,18.61870527841599,1.5328529232089712,17.80209275417628,1.703946456655395,16.979893630030947,1.8686825141601697,16.153088618724723,2.026490767615368,15.322572247911646,2.1768581018064483,14.489161367937093,2.3193269883134238,13.65360317031958,2.453493840314407,12.816582728763661,2.579007349549404,11.978730074535404,2.6955668067022516,11.14062681803182,2.8029204064585955,10.302812328375733,2.9008635384977786,9.465789482867473,2.9892370656765688,8.630029998124856,3.067925590662552,7.795979354742801,3.136855712275159,6.9640613273041225,3.1959942727921447,6.134682131572832,3.2453465974794615,5.308234200701422,3.2849547276023734,4.485099602283554,3.314895648175749,3.6656531080835455,3.335279511711365,2.8502649282741404,3.34624785922018,2.0393031220139295,3.347971839727388,1.2331356961958877,3.340650429558218,0.43213240419843824,3.324508652652318,-0.3633337435295245,3.299795803164628,-1.1528852452182348,3.2667836716106406,-1.9361391380298298,3.225764775813935,-2.712706280982906,3.1770505979138615,-3.482190878717402,3.120969828691275,-4.244190234268392,3.0578666204702283,-4.998294719017361,2.988098849853467,-5.744087947989543,2.9120363915496656,-6.481147148665879,2.830059404550259,-7.209043711478194,2.7425566319137826,-7.927343910156122,2.6499237154155906,-8.635609780094432,2.55256152632087,-9.33340014290921,2.4508745135387957,-10.02027176535159,2.3452690704157697,-10.695780640747541,2.236151921425597,-11.359483381132293,2.123928530014497,-12.01093870824798,2.009001528858843,-12.649709031573057,1.8917691737935223,-13.275362101552146,1.7726238226687996,-13.887472726194716,1.6519504403935827,-14.485624539211363,1.530125131422961,-15.069411807856127,1.407513700947939,-15.638441268643477,1.284470246045219,-16.192333979108543,1.1613357780449438,-16.73072717377912,1.038436877374298,-17.25327611252806,0.9160843821348204,-17.759655909474642,0.7945721116713633,-18.25136957898997,0.6735796952831516,-18.729927362329637,0.5527159565116344,-19.195040339965562,0.43214939118362405,-19.646433063751072,0.31204088969851496,-20.08384514148697,0.1925435685609087,-20.507032821487606,0.07380260191322696,-20.915770577146912,-0.04404494693165839,-21.309852691504542,-0.16087029395781638,-21.68909484181184,-0.2765531029136259,-22.053335684098016,-0.39098165377915794,-22.40243843773611,-0.5040530112335615,-22.736292470009158,-0.6156731931224333,-23.05481488067616,-0.7257573389252046,-23.35795208653824,-0.8342298782225193,-23.645681406004652,-0.9410246991636084,-23.918012643658866,-1.046085316933678,-24.17498967482464,-1.149365042221282,-24.416692030132104,-1.2508271496857042,-24.64323648008376,-1.3504450464243367,-24.85477861962066,-1.4482024404400629,-25.051514452688366,-1.5440935091086316,-25.233681976803076,-1.6381230676460414,-25.401562767617683,-1.7303067375759156,-25.55548356348783,-1.820671115196886" fill="none" stroke="black" stroke-width="2.2222222222222223" stroke-linejoin="round" filter="url(#fuzzy)"></polyline><!--[--><circle r="4.662646062958948" cx="3.1789915567067712" cy="0.5323304053260562" stroke="black" fill="none" stroke-width="1" filter="url(#fuzzy)" clip-path="url(#leftEyeClipPath)"></circle><circle r="4.066946592823523" cx="2.61806174241453" cy="0.2722076672827418" stroke="black" fill="none" stroke-width="1" filter="url(#fuzzy)" clip-path="url(#leftEyeClipPath)"></circle><circle r="3.0279219374150568" cx="2.3727717228430656" cy="-0.6690035806875134" stroke="black" fill="none" stroke-width="1" filter="url(#fuzzy)" clip-path="url(#leftEyeClipPath)"></circle><circle r="4.497674464954983" cx="1.977793388600034" cy="0.7565304973850013" stroke="black" fill="none" stroke-width="1" filter="url(#fuzzy)" clip-path="url(#leftEyeClipPath)"></circle><circle r="4.915500098107653" cx="3.4952613765581564" cy="-3.1998003796431287" stroke="black" fill="none" stroke-width="1" filter="url(#fuzzy)" clip-path="url(#leftEyeClipPath)"></circle><circle r="3.125162505421207" cx="-0.15339727259000346" cy="-2.1057356316929736" stroke="black" fill="none" stroke-width="1" filter="url(#fuzzy)" clip-path="url(#leftEyeClipPath)"></circle><circle r="4.3998991519238375" cx="2.5251367966084484" cy="0.6922700518165454" stroke="black" fill="none" stroke-width="1" filter="url(#fuzzy)" clip-path="url(#leftEyeClipPath)"></circle><circle r="4.1412326486421955" cx="3.672286178012392" cy="-2.32425856526523" stroke="black" fill="none" stroke-width="1" filter="url(#fuzzy)" clip-path="url(#leftEyeClipPath)"></circle><circle r="4.4970472689336605" cx="3.4521971336960213" cy="-0.7303579562966" stroke="black" fill="none" stroke-width="1" filter="url(#fuzzy)" clip-path="url(#leftEyeClipPath)"></circle><circle r="3.1347564516029705" cx="2.6040397222064335" cy="-1.1759249799050762" stroke="black" fill="none" stroke-width="1" filter="url(#fuzzy)" clip-path="url(#leftEyeClipPath)"></circle><!--]--></g><g id="hairs"><!--[--><polyline points="-18,-92,-19.04223089036601,-91.32771627004743,-19.596631185947547,-90.88770492301053,-20.37137182748394,-90.36434199398249,-21.32245099763934,-89.79308430551846,-22.303704728161087,-89.23182991503799,-23.267985589136423,-88.65792727438966,-24.253807477212977,-88.03291485430418,-25.318727230827182,-87.35556657245932,-26.481687152653933,-86.6539564861104,-27.70106203928037,-85.95176299059287,-28.896242079923283,-85.24890876057616,-29.995730255567334,-84.52618642345631,-30.97735758762302,-83.76079752663854,-31.87285225917365,-82.9401078709999,-32.73618846414609,-82.07337302520338,-33.601860367245266,-81.20340846451072,-34.46517942201714,-80.40067576944209,-35.293962264173985,-79.70468245703206,-36.01706242477753,-79.03168814206856,-36.26406472686843,-78.25403441061083,-35.7915845995195,-66.47008568482192,-36.36809459075573,-67.78177041319186,-35.97792149606733,-68.71239911032491,-35.39806718712779,-69.90758241332536,-34.872454579840934,-71.29041982179075,-34.40510671605663,-72.67227898957054,-33.95253063328603,-73.98612869542096,-33.480492342296095,-75.25958207999655,-32.97248993855714,-76.54540713352927,-32.42502505763544,-77.86731895283165,-31.8310861543948,-79.17697314003055,-31.16169681567752,-80.34927697652047,-30.367810937368215,-81.25572550958273,-29.41270113517408,-81.89670043250734,-28.315125939066483,-82.48857368530955,-27.164694797559378,-83.3822899326405,-26.084088055404493,-84.79834082787397,-25.15157613029476,-86.56681945418148,-24.328433260601635,-88.19731640140927,-23.417476314659382,-89.36956997569766,-22,-90" fill="none" stroke="rgb(128, 128, 128)" stroke-width="2" stroke-linejoin="round" filter="url(#fuzzy)"></polyline><polyline points="-25,-89,-25.768882704895507,-88.83882493419583,-27.45716282644445,-88.75992601805864,-29.362476315306353,-89.07084887999451,-31.15524992040974,-89.68242835772054,-32.69923063970976,-90.18240574626229,-33.97199767289125,-90.21904209293173,-35.03656941697395,-89.7427328664917,-35.995168603442956,-88.95680216769316,-36.94245563719658,-88.13662318509272,-37.94488774802024,-87.48830942107911,-39.04417015986398,-87.10340744454358,-40.26610005982492,-86.98114222416186,-41.61945364255359,-87.06945149070002,-43.08224835512271,-87.29163154443656,-44.58850920980647,-87.55241852592172,-46.04202469076783,-87.74602652835095,-47.377223645351364,-87.79996168552657,-48.64264438093094,-87.7528168463507,-50.01988036044222,-87.78839846265969,-51.700166399066944,-88.11368771376486,-53.72662380379661,-88.64659237364357,-56.21172128378701,-88.50356117021784" fill="none" stroke="rgb(128, 128, 128)" stroke-width="2" stroke-linejoin="round" filter="url(#fuzzy)"></polyline><polyline points="-15.649313736361615,-111.95278288320232,-16.588082431550923,-110.60281326350639,-17.482609295750144,-108.84521349835991,-18.452551110356726,-107.51528691825355,-19.42266867793203,-106.39362358244124,-20.30200536515743,-105.17010555181034,-21.07271430424865,-103.74222000410266,-21.789645430079332,-102.17723047838261,-22.525966963670815,-100.60849230225064,-23.319825375001034,-99.14298177472196,-24.15993989656352,-97.79635099292629,-25.010906482351597,-96.47995243812376,-25.852543238789586,-95.05625885264126,-26.703254564246258,-93.43760635293854,-27.60956361162511,-91.66443795610422,-28.60583222978154,-89.90512630948818,-29.67371307800806,-88.37470188519984,-30.743625700703113,-87.230015612069,-31.754249757870618,-86.50294973118956,-32.7192612821681,-86.0646812634122,-33.72538272826926,-85.53308315168432,-35,-84,-42,-78,-43.669184593725944,-77.76758188457195,-44.93183354136702,-77.21839859722942,-46.14543898521126,-76.69496517573704,-47.43390971614229,-76.33600210246465,-48.6984753637842,-76.05812717831319,-49.85512614669196,-75.74458928751976,-50.9081257740552,-75.33879641024258,-51.90240115033965,-74.83058945690871,-52.88077667665392,-74.22530484517587,-53.880974148665786,-73.53095855707318,-54.93493502244999,-72.74917556942218,-56.04992669539806,-71.87729695617323,-57.20208243950746,-70.96674263382872,-58.36201130844674,-70.24671412543401,-59.499522532288104,-70.21994769780335,-60.65429396506941,-71.68234741326384" fill="none" stroke="rgb(128, 128, 128)" stroke-width="2" stroke-linejoin="round" filter="url(#fuzzy)"></polyline><polyline points="72,-18,74.10194244389206,-18.653376191486448,74.51552234658922,-18.027962700293205,74.89129731702336,-17.003832113604375,75.2461596423798,-15.722863146547503,75.37969393459441,-14.2462176924788,75.36013074098624,-12.684684120452014,75.42797331892419,-11.156143353234645,75.77649843428036,-9.734458354499383,76.44255061147085,-8.428531262251902,77.3404464108699,-7.188984509330946,78.36087509582681,-5.937247213219788,79.42667659126069,-4.604896289435799,80.44932814916032,-3.1558166817103035,81.25246285880685,-1.5668350530003865,81.61379932819978,0.21390065183976226,81.32456689008977,2.2280703257558843" fill="none" stroke="rgb(128, 128, 128)" stroke-width="2" stroke-linejoin="round" filter="url(#fuzzy)"></polyline><polyline points="-47,-74,-47.835180103939095,-73.485767459393,-49.21949563695099,-73.98367105059937,-51.025394952897464,-74.86065146114903,-52.571277766371026,-75.16525202466443,-53.72032873893162,-74.73188334187027,-54.8114296503724,-74.02169559756437,-56.177344839279044,-73.51104403116707,-57.86383259131874,-73.33837535914483,-59.66633598023023,-73.3216769628153,-61.33424833464398,-73.16516041354626,-62.75502513377344,-72.66216219792867,-64.0091940172314,-71.79759322004203,-65.297369993815,-70.74250913335173,-66.82480906175249,-69.77825983014615,-68.73966332902634,-69.18989243414558,-71.13531860676055,-69.13883117241355,-74.00065420635232,-69.5016310976401,-76.97905922544798,-69.78579079368497,-78.88207404807677,-69.83003276387124" fill="none" stroke="rgb(128, 128, 128)" stroke-width="2" stroke-linejoin="round" filter="url(#fuzzy)"></polyline><polyline points="-48,-73,-48.39613060974534,-72.76521534026661,-49.14623088909723,-72.1631711422088,-49.99758021821318,-71.43268351870206,-50.935324069044164,-70.70878602601148,-52.002096437407054,-70.03931157432648,-53.23346482628072,-69.47115742981168,-54.63781888212313,-69.05966566893093,-56.184867655774354,-68.80979009597323,-57.80164398092455,-68.62772072462812,-59.385950405252416,-68.34163087408113,-60.83610492098341,-67.78325581328363,-62.08284965230172,-66.87159456591316,-63.109588408202676,-65.64475174962898,-63.95842169062467,-64.23292003178548,-64.72714340252581,-62.80696188624239,-65.5565049436637,-61.53563623395808,-66.59562576955464,-60.548741015963934,-67.93723188885292,-59.88180904997695,-69.54344793390577,-59.41164380094645,-71.2165529419935,-58.86171129844345,-72.67349432607355,-57.98340994744411,-73.77149216509588,-56.97958561960394,-75.00383606568396,-57.424811987789276" fill="none" stroke="rgb(128, 128, 128)" stroke-width="2" stroke-linejoin="round" filter="url(#fuzzy)"></polyline><polyline points="-79.29256859506451,-57.334626522585104,-78.73140382881469,-58.5306071190998,-77.5083694403105,-58.78768668363105,-75.86768829512901,-58.897225641295925,-74.15428360484938,-59.24929801006671,-72.5220139355359,-59.8118813327626,-70.95492008453701,-60.41555305847306,-69.40262360106036,-60.96767284207888,-67.87704166620456,-61.51356943332497,-66.44772922082096,-62.17519295294964,-65.17537560406122,-63.051781706707494,-64.06039894403594,-64.1571534596331,-63.04969039682451,-65.42109890614496,-62.084933006298925,-66.73647995077222,-61.140579964907474,-68.01114238175848,-60.211810454599686,-69.18842836070753,-59.26174906924658,-70.22656594251963,-58.185433659974336,-71.06282643131998,-56.84987194263534,-71.60867121789795,-55.20546387657583,-71.80169041493386,-53.377694159645856,-71.68703247342907,-51.63104794835878,-71.46843989912861,-50.17825716854486,-71.47258707728656,-49,-72,-55,-65,-53.162778627353944,-66.06066037851456,-51.754055098992445,-66.8011426043731,-50.2870321985879,-67.06781347481356,-48.93682635966673,-67.24465418524956,-47.85156681015428,-67.6439642865101,-47.013970257781445,-68.31853821805173,-46.306662524201485,-69.1603398676326,-45.60230679221425,-70.03251038374752,-44.81682602473795,-70.83311300965828,-43.918201989276334,-71.49629212103908,-42.90948842549497,-71.97541506049724,-41.80969726938278,-72.24275510916246,-40.64494232338691,-72.30908214042779,-39.44773595880398,-72.24109852064993,-38.255663040144384,-72.15025577921313,-37.10303189208025,-72.14347686974462,-36.00591319823571,-72.25520819324977,-34.94876575194348,-72.40605006243726,-33.88704975762076,-72.43640886848047,-32.77783493378633,-72.22745898543401,-31.62894212925682,-71.85291916784352,-30.513351567229343,-71.64570745266744,-29.44756006767644,-72.05309278747181,-28.09205897580491,-73.20960823997643,-63,-52,-63.896834509220916,-55.22932497594745,-63.77909055007272,-56.66102291815216,-63.25720378291704,-57.79765325543986,-62.49176027551768,-58.88143332626695,-61.56283904394261,-59.938134717656645,-60.59434113807246,-61.072366408504635,-59.707540511934624,-62.38093919266208,-58.97542768237774,-63.87475753796248,-58.410611467472954,-65.4959460290549,-57.979876159417906,-67.18342997495951,-57.636373368256386,-68.9239488556854,-57.34964421182897,-70.75128351513568,-57.11040402633978,-72.6972144429578,-56.90874641580862,-74.73651070523323,-56.71388659755348,-76.77908907124429,-56.48576799867738,-78.72658165483942,-56.211326072591234,-80.54429197182948,-55.91412384081712,-82.2643180489032,-55.59574567432688,-83.90476968663901,-55.1534986559589,-85.45492503364048,-54.37037957822322,-87.09818750761198,-52.78006131872028,-89.13965911606091" fill="none" stroke="rgb(128, 128, 128)" stroke-width="2" stroke-linejoin="round" filter="url(#fuzzy)"></polyline><polyline points="-64,-49,-65.66380813953366,-48.89611241627491,-67.37183254752158,-48.317897331104035,-68.26988145242042,-47.12592765257122,-68.87185962071628,-45.90219196665013,-69.43770154569022,-44.789067174101795,-70.00450339906264,-43.67714813136818,-70.60897755559638,-42.48745805181473,-71.32338488683436,-41.25764972961861,-72.17786153518581,-40.082268723099865,-73.10819482656262,-39.014378368361804,-73.98804937307071,-38.00799014307305,-74.71799670859711,-36.935393525803406,-75.30281622149496,-35.666183543082056,-75.85824779863493,-34.15796025390026,-76.53849602426938,-32.49710771291372,-77.44308540429891,-30.845029681793605,-78.58252445386026,-29.286346840273026,-79.84452762421184,-27.687540944613872,-80.5602879303921,-26.096994681676314" fill="none" stroke="rgb(128, 128, 128)" stroke-width="2" stroke-linejoin="round" filter="url(#fuzzy)"></polyline><polyline points="-64,-49,-65.04683874961354,-50.27197932999504,-65.80100876231086,-52.555564697949556,-65.9965947778298,-54.63167148924478,-66.09532015620418,-56.57401358793267,-66.26941835444083,-58.51738205819444,-66.53926375576295,-60.57907775008016,-66.91257360662934,-62.860490303556624,-67.38873225963451,-65.41888551166497,-67.92237861104887,-68.23757305054498,-68.4102583678293,-71.20041913922094,-68.7145096221034,-74.08867631161405,-68.71541272744288,-76.64235955540822,-68.37949417600146,-78.70663580352684,-67.81662624759281,-80.40357111610068,-67.2801005186992,-82.17971650566393,-67.04997870987548,-84.5701766937055,-67.18327804105509,-87.68364659759544,-67.36511358411785,-90.80926123756404,-67.9103212660344,-93.21024487494917,-64,-48,-63.95720402232669,-48.61556311771112,-63.662647160711984,-49.377367219948304,-63.17854221853684,-50.47761085297375,-62.592863933401425,-51.69303770753089,-61.98122787812207,-52.88210130901553,-61.38743968651078,-54.03563700538349,-60.82147177605969,-55.20578643460508,-60.26971020526468,-56.439609132912004,-59.70612817766817,-57.75524264203502,-59.10391927189477,-59.14731021355313,-58.45022153459762,-60.594348958178074,-57.75777380852289,-62.05663737865111,-57.06058300310371,-63.475951034803224,-56.38840611547045,-64.79615394227102,-55.734956245624204,-66.00414027654507,-55.04983774447796,-67.15655220585771,-54.27336211738799,-68.34477737329065,-53.396139953133115,-69.59376971650528,-52.51792160002431,-70.76288958193342,-52.06358209998171,-71.45981856860234,-66,-43,-66.21117208412527,-42.45234803255594,-66.45029630081963,-41.359465720499934,-66.65396210966543,-39.968865943266046,-66.91471388372787,-38.46007286945869,-67.22621573115833,-37.018807472584264,-67.5340571168161,-35.71976547296784,-67.81369051250905,-34.51025880208644,-68.08283368349021,-33.2797942897604,-68.36779165844493,-31.938892263792386,-68.66906685423092,-30.459738113585,-68.95559191656127,-28.872461177651015,-69.18788680940482,-27.236865306581475,-69.34842603485471,-25.615222849495886,-69.45539902540968,-24.060057796154812,-69.5512733789934,-22.612212083769247,-69.6728777795318,-21.29664867837447,-69.81285874105907,-20.11799867142631,-69.88912910896003,-19.077305535136944,-69.78499404324526,-18.19877608760988,-69.6015465284482,-17.40038663211205" fill="none" stroke="rgb(128, 128, 128)" stroke-width="2" stroke-linejoin="round" filter="url(#fuzzy)"></polyline><polyline points="70.97173041037325,-74.70708464249816,69.29234150694248,-71.06905967661298,69.53229471794722,-68.56549060559017,70.03685637229178,-66.99075795548562,70.3508362894402,-65.67178547649817,70.45195584202062,-64.17196925762893,70.36670380414553,-62.357951799231614,70.08680274705233,-60.252870726561596,69.63715070357323,-57.952635056785034,69.12074551316178,-55.595237737359255,68.67770248591971,-53.321015742127805,68.39346369611417,-51.22016829223871,68.21705937350993,-49.293247870114826,67.95708147484277,-47.4446414208771,67.43004885843101,-45.5362769872246,66.72564896499438,-43.52781326231891,66.22813960256528,-41.676069566799725,66,-41,65,-44,65.48033932327293,-41.33531431234984,65.61048833435675,-39.56277423787925,65.89916015189314,-38.249625350009474,66.35075612676269,-37.250676989089385,66.8109963587751,-36.33646749045278,67.1703453767863,-35.32664221838492,67.39983168236144,-34.143361790205404,67.52182135062712,-32.79397176826185,67.57774640661172,-31.332699089300604,67.61041347257019,-29.821479082834507,67.6552613585003,-28.30169739826241,67.73160215963735,-26.78624753969767,67.83444448949155,-25.271627481691112,67.9359791745462,-23.758436270318153,68.00153077845653,-22.265414555543902,68.0105418419517,-20.828800725101086,67.9647732268604,-19.488453003346297,67.87567673839884,-18.26736711132575,67.74437178791027,-17.151017715246365,67.55932393261945,-16.07317762980516,67.32399508149162,-14.91953367993574,67.09829839666564,-13.563670374554526,67.00811254489227,-11.940654316786297,67.0798776088685,-10.107926762980185,64,-46,63.426844213116766,-48.05924201146346,63.316538153148485,-49.688804997191596,63.27250307667239,-51.338981728234614,63.04750117351621,-52.88339467257807,62.63645906931271,-54.25066935621912,62.16668197589405,-55.481117648964116,61.752989463358944,-56.654505606153705,61.431669621169725,-57.86932334332496,61.17632624646502,-59.228744494936166,60.94230069767207,-60.77904895094671,60.69014780062437,-62.442664059615254,60.37770077149135,-64.0392849913943,59.94821053489592,-65.42737217561528,59.34037781933511,-66.67512482870401,58.492638830305594,-68.11496693541878,57.28314846081665,-70.25291792364307,56,-62,56.38833295159644,-61.220891032943356,57.48183472773972,-60.774573903867626,59.19600503547743,-60.58443512670731,61.240749208241326,-60.63476941124214,63.30838058744377,-60.87111697282003,65.22522760076538,-61.11981915508575,66.98070998076689,-61.1980445858157,68.65839250435609,-61.0339198954271,70.3328098361084,-60.6608174841734,72.02864876301342,-60.14746658286986,73.77761572432587,-59.57785372744354,75.67674712368908,-59.05035845916857,77.8459746107769,-58.58040711997307,80.51815341023614,-58.13796111815384,85.03075748189725,-58.86744748746733,56,-62,56.35311029542183,-61.17471704174401,57.20117295244599,-60.47680045297963,58.350329420266846,-59.73522281166672,59.62591458855062,-59.04874933020528,60.94716402688383,-58.55984887254931,62.35567792927104,-58.29503266206721,63.9015705881534,-58.15783588371969,65.53974861788382,-57.98869910015294,67.14797903649756,-57.644427520476555,68.61804340697475,-57.056634577233076,69.90988136274262,-56.232441308446624,71.0444277545725,-55.21438259381922,72.11267826582147,-54.080093526818196,73.33232002210623,-53.02962335351285,74.98573336780227,-52.433618373058984,76.97652676781273,-52.552673797999105,78.08207911945883,-52.85556125009521,33,-84,34.89011843315063,-82.77056499767754,37.005656193935,-83.39019877306059,39.28206030722662,-84.90180294392744,41.23682618230175,-85.76761866163578,42.66808992659088,-85.51458822280352,43.73492290228307,-84.56760400688998,44.72151546330033,-83.55241243812995,45.831431176512964,-82.85993639374377,47.11120910276926,-82.55473627197217,48.48551736494325,-82.48700754234183,49.84822420627529,-82.4674849648409,51.14552662883118,-82.39847911855617,52.409504740275246,-82.30592907728652,53.74408590654041,-82.29167160132822,55.29243222893649,-82.473337510942,57.19834286387012,-82.95375283618004,59.539443545608606,-83.79187576304118,62.21430034565485,-84.91893686120108,64.82588944324249,-85.99205252703426,66.68611509886227,-86.30248425096534,67.35803658704492,-85.49289259124933" fill="none" stroke="rgb(128, 128, 128)" stroke-width="2" stroke-linejoin="round" filter="url(#fuzzy)"></polyline><polyline points="9,-93,9.923514578510684,-94.53164249308918,11.185077670030479,-94.48842269002779,12.511399030952942,-94.82295911100216,13.838128694802473,-95.50759175053325,15.091644323504878,-96.04765379653283,16.274637690252543,-96.33723240540142,17.473982195071446,-96.67936384942644,18.798769566914547,-97.4114715740819,20.31551659094696,-98.61113582919752,22.01388308851145,-100.07157080257558,23.80857071153554,-101.46806889117555,25.57062421223046,-102.53729905134801,27.176387606176295,-103.15424722595189,28.560550866318064,-103.31586498649078,29.758106801507022,-103.11345090518013,30.916927023305036,-102.74882187089152,32.26164534450658,-102.56225000114443,33.99991848204765,-102.97992799065548,36.19034027117002,-104.3178873174969,38.62676615556668,-106.49346500216188,40.80900856884581,-108.84737391212843,42.083365922598105,-110.43142624873649,42.34672892101977,-111.16016341767688" fill="none" stroke="rgb(128, 128, 128)" stroke-width="2" stroke-linejoin="round" filter="url(#fuzzy)"></polyline><!--]--></g><g id="pointNose"><g id="rightNose"><!--[--><circle r="2.1281152563959873" cx="10.09731029665058" cy="37.08134572596348" stroke="black" fill="none" stroke-width="1" filter="url(#fuzzy)"></circle><circle r="2.127121874044973" cx="12.49157120529621" cy="36.502911902686286" stroke="black" fill="none" stroke-width="1" filter="url(#fuzzy)"></circle><circle r="1.3266116654901015" cx="11.665857451082811" cy="37.00639887774909" stroke="black" fill="none" stroke-width="1" filter="url(#fuzzy)"></circle><circle r="1.2186592445867563" cx="10.57207908507302" cy="34.4607631421179" stroke="black" fill="none" stroke-width="1" filter="url(#fuzzy)"></circle><circle r="2.703852798950943" cx="11.685534008143566" cy="37.192870524220226" stroke="black" fill="none" stroke-width="1" filter="url(#fuzzy)"></circle><circle r="1.6195944037573928" cx="12.01909116895808" cy="36.72285728351074" stroke="black" fill="none" stroke-width="1" filter="url(#fuzzy)"></circle><circle r="1.212183536329459" cx="12.719025067744969" cy="34.684431512015465" stroke="black" fill="none" stroke-width="1" filter="url(#fuzzy)"></circle><circle r="2.4315042453193705" cx="11.839779958632429" cy="36.078381265121315" stroke="black" fill="none" stroke-width="1" filter="url(#fuzzy)"></circle><circle r="2.9286045480607292" cx="12.41494434178025" cy="35.85081541644674" stroke="black" fill="none" stroke-width="1" filter="url(#fuzzy)"></circle><circle r="1.8531631657427603" cx="9.987339082836595" cy="37.25186124451205" stroke="black" fill="none" stroke-width="1" filter="url(#fuzzy)"></circle><!--]--></g><g id="leftNose"><!--[--><circle r="2.6381944378364643" cx="-10.333246608179676" cy="43.90268288420876" stroke="black" fill="none" stroke-width="1" filter="url(#fuzzy)"></circle><circle r="1.2031426087112453" cx="-7.3160727046434095" cy="41.145804864387046" stroke="black" fill="none" stroke-width="1" filter="url(#fuzzy)"></circle><circle r="2.700517574832711" cx="-10.29590996239323" cy="43.52740259382838" stroke="black" fill="none" stroke-width="1" filter="url(#fuzzy)"></circle><circle r="2.2788191750337834" cx="-10.205293592839805" cy="40.90155954743745" stroke="black" fill="none" stroke-width="1" filter="url(#fuzzy)"></circle><circle r="2.381841163750523" cx="-8.049332851865376" cy="42.917076811882076" stroke="black" fill="none" stroke-width="1" filter="url(#fuzzy)"></circle><circle r="1.3980597305508973" cx="-8.002068297087337" cy="43.389681150895235" stroke="black" fill="none" stroke-width="1" filter="url(#fuzzy)"></circle><circle r="1.0564206163492464" cx="-9.759435426078642" cy="40.777760552932826" stroke="black" fill="none" stroke-width="1" filter="url(#fuzzy)"></circle><circle r="1.761452458974047" cx="-9.023216852948615" cy="42.152001259089104" stroke="black" fill="none" stroke-width="1" filter="url(#fuzzy)"></circle><circle r="1.5978477302759846" cx="-8.59553891533982" cy="44.215549117633664" stroke="black" fill="none" stroke-width="1" filter="url(#fuzzy)"></circle><circle r="1.411993215514467" cx="-7.7094774992585435" cy="43.66695318831026" stroke="black" fill="none" stroke-width="1" filter="url(#fuzzy)"></circle><!--]--></g></g><g id="mouth"><polyline points="-13.557608789666565,54.28450056762886,-13.238409882301996,53.34993090676671,-12.913512426697192,52.44679119447771,-12.58308899534414,51.574732912549436,-12.247312160734804,50.73340754276949,-11.90635449536118,49.92246656692544,-11.560388571715228,49.1415614668049,-11.209586962288935,48.39034372419545,-10.854122239574275,47.66846482088467,-10.494166976063223,46.97557623866016,-10.129893744247763,46.311329459309505,-9.761475116619854,45.67537596462029,-9.389083665671498,45.06736723638011,-9.012891963894653,44.48695475637655,-8.633072583781303,43.93379000639719,-8.249798097823426,43.40752446822964,-7.863241078512996,42.907809623661464,-7.473574098341997,42.43429695448027,-7.080969729802394,41.98663794247364,-6.685600545386173,41.56448406942916,-6.287639117585311,41.16748681713443,-5.88725801889178,40.79529766737703,-5.48462982179756,40.44756810194454,-5.079927098794629,40.12394960262456,-4.6733224223749605,39.82409365120469,-4.264988365030537,39.547651729472484,-3.855097499253331,39.294275319215565,-3.44382239753532,39.06361590222151,-3.0313356323684806,38.855324960277905,-2.6178097762447905,38.66905397517234,-2.203417401656229,38.50445442869241,-1.7883310810947712,38.3611778026257,-1.3727233870523943,38.23887557875978,-0.9567668920210739,38.137199238882275,-0.5406341684927884,38.05580026478075,-0.12449778895951447,37.994330138242795,0.29146967408677016,37.952440341056,0.7070956481540902,37.92978235500796,1.1222075607504658,37.92600766188626,1.536632839383923,37.94076774347849,1.9501989115624827,37.97371408157224,2.3627332047941683,38.02449815795509,2.774063146587003,38.09277145441464,3.1840161644490115,38.17818545273847,3.5924196858882134,38.28039163471417,3.9991011384126343,38.399041482129334,4.403887949530298,38.533786476771546,4.806607546749223,38.68427810042841,5.207087357577437,38.85016783488748,5.60515480952296,39.031107161936376,6.000637330093815,39.226747563362686,6.393362346798028,39.436740520953975,6.78315728714362,39.66073751649786,7.169849578638615,39.89839003178191,7.553266648791034,40.14934954859372,7.9332359251089,40.41326754872089,8.30958483510024,40.68979551395098,8.682140806273072,40.978584926071605,9.050731266135422,41.27928726687034,9.415183642195313,41.59155401813479,9.775325361960768,41.91503666165253,10.130983852939806,42.24938667921115,10.481986542640456,42.594255552598234,10.828160858570735,42.94929476360138,11.169334228238672,43.31415579400818,11.505334079152286,43.68849012560621,11.835987838819603,44.071949240183066,12.161122934748638,44.46418461952634,12.480566794447427,44.86484774542362,12.794146845423981,45.273590099662485,13.101690515186329,45.69006316403053,13.403025231242497,46.11391842031535,13.6979784211005,46.544807350304524,13.986377512268367,46.982381435785655,14.268049932254115,47.42629215854631,14.542823108565777,47.8761910003741,14.810524468711368,48.331729443056595,15.070981440198914,48.79255896838139,15.324021450536437,49.258331058136086,15.569471927231955,49.72869719410826,15.807160297793503,50.20330885808549,16.036913989729094,50.68181753185539,16.25856043054675,51.16387469720553,16.471927047754505,51.64913183592351,16.67684126886037,52.137240429796904,16.873130521372378,52.62785196061332,17.06062223279854,53.120617910160334,17.239143830646892,53.61518976022553,17.408522742425447,54.11121899259652,17.568586395642235,54.60835708906087,17.719162217805277,55.10625553140617,17.860077636422588,55.60456580142002,17.991160079002206,56.10293938089001,18.11223697305214,56.60102775160371,18.223135746080423,57.09848239534873,18.323683825595076,57.59495479391265,18.413708639104115,58.09009642908306,18.493037614115572,58.58355878264754,18.561498178137462,59.074993336393696,18.61891775867781,59.5640515721091,18.61891775867781,59.5640515721091,18.297152493194368,59.448012568463525,17.975387227710925,59.33162907823836,17.653621962227476,59.21495162490956,17.331856696744037,59.09803073195311,17.01009143126059,58.98091692284497,16.68832616577715,58.86366072106111,16.3665609002937,58.74631265007749,16.04479563481026,58.628923233370095,15.723030369326814,58.51154299441489,15.401265103843373,58.39422245668783,15.07949983835993,58.27701214366489,14.757734572876483,58.15996257882205,14.435969307393043,58.043124285635265,14.114204041909597,57.9265477875805,13.792438776426156,57.810283608133744,13.470673510942706,57.69438227077095,13.148908245459266,57.57889429896809,12.827142979975825,57.46387021620112,12.50537771449238,57.34936054594604,12.183612449008933,57.235415811678784,11.861847183525493,57.122086536875344,11.540081918042047,57.009423245011675,11.218316652558604,56.897476459563755,10.89655138707516,56.78629670400755,10.574786121591718,56.675934501819015,10.253020856108272,56.566440376474134,9.93125559062483,56.457864851448875,9.609490325141385,56.35025845021921,9.28772505965794,56.24367169626109,8.965959794174495,56.138155113050495,8.644194528691052,56.0337592240634,8.322429263207606,55.930534552775754,8.000663997724164,55.828531622663554,7.678898732240721,55.727800957202746,7.3571334667572765,55.6283930798693,7.035368201273834,55.53035851413919,6.71360293579039,55.433747783488386,6.391837670306947,55.338611411392854,6.070072404823502,55.244999921328564,5.748307139340058,55.15296383677149,5.426541873856617,55.062553681197585,5.1047766083731725,54.97381997808282,4.783011342889728,54.88681325090319,4.461246077406285,54.80158402313463,4.13948081192284,54.71818281825312,3.8177155464393966,54.63666015973464,3.4959502809559537,54.557066571055145,3.1741850154725086,54.4794525756906,2.8524197499890653,54.403868697117,2.530654484505621,54.33036545881028,2.208889219022177,54.25899338424642,1.8871239535387327,54.1898029969014,1.5653586880552885,54.12284482025118,1.2435934225718466,54.05816937777173,0.9218281570884013,53.99582719293902,0.6000628916049573,53.935868789229005,0.2782976261215153,53.87834469011767,-0.04346763936192799,53.823305419080974,-0.3652329048453713,53.770801499594896,-0.6869981703288164,53.72088345513539,-1.0087634358122606,53.67360180917845,-1.3305287012957034,53.62900708520001,-1.6522939667791476,53.58714980667606,-1.9740592322625918,53.54808049708257,-2.295824497746036,53.5118496798955,-2.6175897632294802,53.47850787859082,-2.9393550287129235,53.44810561664449,-3.2611202941963677,53.420693417532505,-3.5828855596798084,53.3963218047308,-3.9046508251632552,53.37504130171537,-4.226416090646697,53.356902431962176,-4.54818135613014,53.341955718947176,-4.869946621613586,53.330251686146354,-5.191711887097029,53.32184085703567,-5.513477152580471,53.31677375509109,-5.835242418063919,53.3151009037886,-6.157007683547361,53.31687282660413,-6.478772949030805,53.32214004701369,-6.8005382145142494,53.33095308849323,-7.122303479997692,53.34336247451873,-7.444068745481136,53.35941872856613,-7.765834010964582,53.37917237411143,-8.087599276448023,53.40267393463058,-8.409364541931463,53.429973933599555,-8.731129807414913,53.46112289449433,-9.052895072898355,53.496171340790866,-9.3746603383818,53.53516979596512,-9.69642560386524,53.57816878349308,-10.01819086934869,53.62521882685071,-10.339956134832132,53.67637044951397,-10.661721400315573,53.73167417495884,-10.983486665799017,53.79118052666128,-11.305251931282463,53.85494002809726,-11.627017196765904,53.923003202742755,-11.94878246224935,53.99542057407373,-12.270547727732794,54.072242665566144,-12.592312993216234,54.15352000069598,-12.91407825869968,54.23930310293919,-13.235843524183121,54.32964249577176" fill="rgb(215,127,140)" stroke="black" stroke-width="3" stroke-linejoin="round" filter="url(#fuzzy)"></polyline></g></svg>